<svg xmlns="http://www.w3.org/2000/svg" xmlns:xlink="http://www.w3.org/1999/xlink" version="1.1" width="256" height="256" viewBox="0 0 256 256" xml:space="preserve">

<defs>
</defs>
<g style="stroke: none; stroke-width: 0; stroke-dasharray: none; stroke-linecap: butt; stroke-linejoin: miter; stroke-miterlimit: 10; fill: none; fill-rule: nonzero; opacity: 1;" transform="translate(1.4065934065934016 1.4065934065934016) scale(2.81 2.81)" >
	<circle cx="45" cy="45" r="45" style="stroke: none; stroke-width: 1; stroke-dasharray: none; stroke-linecap: butt; stroke-linejoin: miter; stroke-miterlimit: 10; fill: rgb(255,203,74); fill-rule: nonzero; opacity: 1;" transform="  matrix(1 0 0 1 0 0) "/>
	<path d="M 64.76 20.107 l -28.017 8.97 c -2.211 0.708 -3.711 2.763 -3.711 5.084 v 18.976 c -1.097 -0.207 -2.255 -0.26 -3.444 -0.113 c -2.448 0.305 -4.688 1.374 -6.307 3.01 c -1.828 1.847 -2.705 4.281 -2.406 6.68 c 0.531 4.261 4.617 7.342 9.418 7.342 c 0.463 0 0.934 -0.029 1.407 -0.088 c 4.874 -0.608 8.526 -4.226 8.747 -8.37 c 0.014 -0.133 0.023 -0.267 0.023 -0.403 v -0.044 c 0 -0.001 0 -0.002 0 -0.003 V 38.154 c 0 -1.398 0.894 -2.64 2.221 -3.082 l 17.004 -5.674 c 1.008 -0.336 2.049 0.414 2.049 1.476 v 13.027 c -1.113 -0.205 -2.276 -0.245 -3.445 -0.1 c -2.447 0.305 -4.687 1.374 -6.306 3.011 c -1.828 1.847 -2.705 4.282 -2.406 6.679 c 0.531 4.26 4.617 7.343 9.419 7.342 c 0.463 0 0.933 -0.029 1.406 -0.088 c 4.874 -0.608 8.526 -4.227 8.747 -8.37 c 0.014 -0.132 0.023 -0.266 0.023 -0.402 v -0.044 c 0 -0.001 0 -0.003 0 -0.004 l 0 -28.591 C 69.182 21.038 66.947 19.407 64.76 20.107 z" style="stroke: none; stroke-width: 1; stroke-dasharray: none; stroke-linecap: butt; stroke-linejoin: miter; stroke-miterlimit: 10; fill: rgb(255,255,255); fill-rule: nonzero; opacity: 1;" transform=" matrix(1 0 0 1 0 0) " stroke-linecap="round" />
</g>
</svg>